<?xml version="1.0" encoding="UTF-8"?>
<svg id="Calque_2" data-name="Calque 2" xmlns="http://www.w3.org/2000/svg" viewBox="0 0 205.82 114.34">
  <defs>
    <style>
      .cls-1 {
        fill: #010101;
      }
    </style>
  </defs>
  <g id="Calque_1-2" data-name="Calque 1">
    <path class="cls-1" d="M92.82,56.8c-24.81-.2-49.63-.36-74.44-.63-4.94-.06-9.9-.44-14.82-.92-.81-.09-1.58-.42-2.2-.95-.63-.53-1.07-1.23-1.29-2.03-.41-1.26,1-3.05,2.68-3.31,1.63-.26,3.25-.65,4.89-.75,10.45-.63,20.91-1.53,31.37-1.71,21.5-.39,43.01-.48,64.51-.51,20.4-.03,40.8.23,61.2.28,3.28,0,6.55-.4,9.82-.69.21-.06.42-.16.58-.31.16-.15.29-.34.36-.55.06-.5-.09-1.35-.43-1.53-6.27-3.4-12.46-6.97-18.91-10-15-7.05-29.07-15.69-43.13-24.36-2.31-1.43-4.73-2.88-5.66-5.7-.17-.52-.44-1.4-.22-1.57.77-.72,1.71-1.23,2.72-1.5,1.09-.12,2.19.05,3.18.51,3.51,1.59,7,3.24,10.42,5.02,24.43,12.71,48.85,25.43,73.26,38.16,9.22,4.78,13.6,9.41,2.53,19.92-3.19,3.03-6.41,6.05-9.88,8.74-16.08,12.51-32.22,24.93-48.42,37.28-2.23,1.59-4.58,3.01-7.03,4.23-1.6.86-3.2.35-4.57-.68-1.52-1.14-2.46-4.46-1.94-5.91,1.16-3.24,3.48-5.61,5.96-7.77,9.58-8.28,19.21-16.49,28.89-24.66,6.29-5.33,12.65-10.58,18.93-15.93.31-.27.32-1.08.2-1.57-.08-.21-.22-.41-.39-.56-.17-.15-.38-.26-.6-.31-3.29-.21-6.57-.49-9.86-.47-25.92.14-51.83.31-77.74.51v.24Z"/>
  </g>
</svg>