<?xml version="1.0" encoding="UTF-8"?>
<svg id="Calque_2" data-name="Calque 2" xmlns="http://www.w3.org/2000/svg" viewBox="0 0 115.86 76.51">
  <defs>
    <style>
      .cls-1 {
        fill: #90b871;
      }
    </style>
  </defs>
  <g id="Calque_1-2" data-name="Calque 1">
    <path class="cls-1" d="M29.22,63.58c1.22-6.87,2.42-13.73,3.64-20.63.3-.1.64-.18.94-.28.51,1.24,1.32,2.43,1.5,3.75.33,2.66.61,5.4.38,8.08-.46,5.15-1.27,10.31-1.98,15.46-.77,5.47-2.21,6.28-7.77,5.22-6.14-1.17-10.8-4.51-15.43-7.85-.79-.58-1.5-2.23-1.12-2.97.79-1.59,2.55-1.24,3.84-.56,3.06,1.55,6.04,3.19,9.6,4.36-.43-.81-.86-1.62-1.32-2.43C14.52,53.44,7.57,41.15.59,28.84c-.61-1.09-1.12-2.51.46-3.12.87-.33,2.75.2,3.23.91,2.98,4.36,5.73,8.84,8.51,13.33,5.02,8.04,10.01,16.07,15.03,24.1.48-.18.94-.33,1.4-.48ZM91.29,68.09l15.73-23.64c2.91-4.39,5.89-8.74,8.61-13.28.46-.73.15-2.66-.51-3.32-1.22-1.19-2.29-.13-3.06.89-8.32,11.43-16.63,22.88-24.95,34.31-.54.74-1.12,1.47-1.66,2.21-.43-3.7-.15-7.09-.03-10.52.05-1.47-.35-3.19-2.14-3.24-.84-.03-2.06,1.29-2.24,2.26-1.13,5.6-2.22,11.17-.74,17.23,1.35,5.47,2.7,6.44,8.02,4.84,4.99-1.49,10.03-2.94,14.95-4.66,2.57-.91,4.94-2.3,7.23-3.72,1.12-.68,1.86-1.93,2.78-2.91-.2-.26-.43-.48-.64-.73-6.78,1.77-13.57,3.55-20.35,5.32-.35-.3-.69-.66-1.02-1.01ZM57.78,2.28c-.66,5.07-1.53,10.14-1.78,15.2-.31,6.06-.08,12.16-.08,18.24-.35.05-.71.13-1.07.18-.94-1.82-1.76-3.75-2.91-5.5-1.04-1.62-1.27-4.1-4.96-4.16.33,1.4.51,2.51.84,3.57,1.07,3.32,2.22,6.61,3.34,9.91.69,2,1.24,4.08,2.16,5.98,1.71,3.52,4.43,3.88,6.47.63,3.31-5.22,6.32-10.56,9.22-15.98,1.32-2.46,1.32-5.09-.92-8.04-2.6,4.26-4.89,8.06-7.67,12.62-1.73-12.36.1-23.64.79-34.79-2.88-.64-3.26.76-3.44,2.13Z"/>
  </g>
</svg>