<?xml version="1.0" encoding="UTF-8"?>
<svg id="Calque_2" data-name="Calque 2" xmlns="http://www.w3.org/2000/svg" viewBox="0 0 191.16 123.45">
  <defs>
    <style>
      .cls-1 {
        fill: #010101;
      }
    </style>
  </defs>
  <g id="Calque_1-2" data-name="Calque 1">
    <path class="cls-1" d="M154.29,8.83c-3.49-5.53-5.67-9.98-.32-8.56,1.77.52,4.51,2.45,8.49,6.73,3.96,4.29,9.2,10.9,15.26,20.8,10.28,17.2,14.07,24.97,13.36,26.53-.52.99-3.18,1.77-10.09,2.78-6.82,1.12-18.21,2.13-34.41,6.08-4.66,1.07-13.79,3.11-16.26.99-2.18-1.82,2.45-4.72,7.76-6.46,16.19-5.23,29.26-5.83,31.28-6.76,1.25-.48-2.85-1.61-8.13-4.1-10.15-4.83-20.88-8.99-31.06-11.93-15.18-4.26-30.59-6.05-45.18-4.82-14.57,1.15-28.14,5.23-39.26,11.36-11.18,6.15-19.61,14.3-25.32,22.64-5.73,8.34-8.89,16.54-10.6,23.02-2.69,11.06-2.18,19.14-1.46,24.26.77,5.16,1.52,7.59,1.65,8.13.35,1.69.09,3.78-1.09,3.92-.59.07-1.41-.37-2.53-1.67-.55-.66-1.21-1.53-1.89-2.67-.6-1.17-1.26-2.61-1.97-4.38-2.9-7.58-3.45-18.47-.82-29.46,2.95-12.75,9.67-25.12,18.85-35.04,9.22-10.05,20.94-16.92,32.37-21.48,15.08-5.89,30.07-7.71,43.52-7.51,13.53.19,25.56,2.69,35.95,5.55,13.4,3.95,23.1,8.3,29.84,11.31,6.71,3.09,10.46,4.9,11.51,5.1,2.61.53-4.03-9.87-9.72-19.47-1.56-2.7-6.18-9.39-9.73-14.9Z"/>
  </g>
</svg>