<?xml version="1.0" encoding="UTF-8"?>
<svg id="Calque_2" data-name="Calque 2" xmlns="http://www.w3.org/2000/svg" viewBox="0 0 186.23 43.68">
  <defs>
    <style>
      .cls-1 {
        fill: #242650;
      }
    </style>
  </defs>
  <g id="Calque_1-2" data-name="Calque 1">
    <path class="cls-1" d="M178.78,43.46c-6.6-2.2-13.32-3.87-20.18-5-6.86-1.12-13.73-1.46-20.65-1.92h0c-1.43-.11-1.88-.92-.85-1.88,1.32-1.22,3.5-1.68,5.23-1.81,7.35-.57,15,.35,22.25,1.52,2.22.37,4.43.79,6.62,1.27-8.31-7.04-17.43-12.83-27.34-17.42C100.78-1.86,50.15,1.99,7.34,20.77c-1.67.73-4.74,1.95-6.56,1.15-1.82-.81-.01-2.15,1.09-2.68,14.92-7.16,30.49-12.37,46.7-15.61,42.78-8.62,90.29-2.38,125.83,24.01-1.89-5.8-4.36-11.4-7.4-16.8-1.78-3.09,6.31-5.72,7.66-3.3,5.84,10.22,9.69,21.16,11.55,32.82.48,3.1-5.59,3.72-7.43,3.1Z"/>
  </g>
</svg>