<?xml version="1.0" encoding="UTF-8"?>
<svg id="Calque_2" data-name="Calque 2" xmlns="http://www.w3.org/2000/svg" viewBox="0 0 54.85 65.42">
  <defs>
    <style>
      .cls-1 {
        fill: #010101;
      }
    </style>
  </defs>
  <g id="Calque_1-2" data-name="Calque 1">
    <path class="cls-1" d="M54.85,2.71c-2.22.33-3.42.64-4.63.67-9.59.24-17.85,4.45-25.44,10.2-2.35,1.79-4.36,4.54-5.72,7.31-4.46,9.08-6.11,18.8-4.68,29.6,2.22-1.73,2.31-4.2,3.26-6.11.85-1.73,1.55-3.57,2.57-5.19.34-.54,1.56-.9,2.17-.68.6.22,1.34,1.29,1.32,1.96-.06,1.76-.31,3.58-.83,5.24-1.7,5.43-3.51,10.81-5.35,16.18-1.34,3.89-2.85,4.45-5.95,2.23-4.98-3.57-8.75-8.3-11.23-14.14-.4-.95-.21-2.19-.33-3.79,5.02,1.14,5.34,6.78,9.36,8.79-.13-2.01-.21-3.71-.36-5.4-.85-9.83.59-19.26,4.3-28.3,2.51-6.11,6.44-10.84,11.98-13.96C31.23,3.99,37.37,1.1,44.11.27c3.32-.41,6.85-.82,10.74,2.44Z"/>
  </g>
</svg>