<?xml version="1.0" encoding="UTF-8"?>
<svg id="Calque_2" data-name="Calque 2" xmlns="http://www.w3.org/2000/svg" viewBox="0 0 783.94 113.75">
  <defs>
    <style>
      .cls-1 {
        fill: #90b871;
      }
    </style>
  </defs>
  <g id="Calque_1-2" data-name="Calque 1">
    <g>
      <path class="cls-1" d="M767.94,16.81c-10.72-11.07-24.95-16.68-42.3-16.68-17.26.09-31.43,5.72-42.12,16.73-.24.26-.49.51-.73.77-.09-1.07-.18-2.09-.26-3.04-.52-6.82-5.24-11.91-12.33-13.27l-.64-.11h-.09c-3.16-.4-7.32-.58-12.71-.58s-9.71.18-12.98.57h-.07s-.65.11-.65.11h-.07c-7.08,1.37-11.8,6.46-12.33,13.3-.9,10.07-1.59,21.84-2.06,34.98-.84.05-1.67.17-2.49.37-3.72.92-6.92,3.29-9.01,6.66-2.09,3.31-4.22,5.53-6.3,6.59-.27.13-.61.28-1.03.44-1.69.63-4.74,1.35-9.83,1.35-4.12,0-5.32-.56-5.65-.8-.08-.07-.13-.1-.15-.55-.01-.13-.01-.3-.01-.52,0-1.76.04-3.63.14-5.56.1-1.99.2-3.75.3-5.3.09-1.32.29-3.05.57-4.99.33-2.26.59-3.99.77-5.16.19-1.17.54-3.05,1.01-5.4l.49-2.48c.28-1.44.49-2.48.61-3.15l.04-.17c.16-.77.48-2.37,1.25-5.9l1.36-6.22c1.02-4.35-.1-8.86-3.08-12.35-2.57-3.01-6.03-4.83-10.01-5.26l-.13-.02h-.08c-4-.36-8.48-.54-13.3-.54-8.32,0-14.23.18-18.05.55l-.31.03h-.06c-7.25.94-12.32,5.81-13.23,12.71l-.05.35v.04s0,.05,0,.05c-.11,1.11-.21,2.27-.31,3.5-.33-.35-.65-.7-.98-1.04C530.34,5.74,516.11.13,498.76.13c-15.78.08-28.98,4.8-39.31,14.04-.99-7.53-6.45-12.61-14-13.03-1.03-.06-2.21-.12-3.53-.17v2.01c1.28.05,2.42.1,3.42.16,6.66.37,11.44,4.94,12.17,11.63l.05.53c.06,1.13.11,2.25.16,3.34.12-.13.24-.25.36-.38,10.31-10.61,24-16.04,40.68-16.13,16.81,0,30.54,5.41,40.87,16.08,1.44,1.49,2.78,3.06,4.02,4.7.22-2.9.45-5.69.7-8.36l.05-.36c.79-5.96,5.2-10.17,11.51-10.99l.3-.03c3.83-.37,9.67-.54,17.86-.54,4.78,0,9.2.18,13.12.53l.15.02c3.47.37,6.49,1.95,8.73,4.57,2.57,3.01,3.53,6.88,2.65,10.63l-1.36,6.22c-.85,3.91-1.17,5.49-1.3,6.12-.19,1-.56,2.86-1.1,5.61-.64,3.19-.91,4.75-1.03,5.49-.18,1.18-.44,2.91-.77,5.18-.3,2.08-.49,3.81-.58,5.15-.1,1.55-.2,3.32-.31,5.33-.09,1.9-.14,3.8-.14,5.65,0,.18,0,.35.01.52.05,1.79.68,3.35,7.8,3.35,6.44,0,9.95-1.09,11.76-2,.69-.35,1.38-.8,2.06-1.35,1.71-1.37,3.4-3.37,5.04-5.97,1.82-2.94,4.58-4.98,7.78-5.77.95-.23,1.9-.35,2.84-.35.37,0,.74.02,1.11.06.47-13.92,1.18-26.23,2.13-36.85.45-5.9,4.54-10.3,10.71-11.48l.65-.1c3.21-.38,7.38-.56,12.74-.56s9.36.18,12.47.56l.6.1c6.16,1.18,10.26,5.58,10.71,11.48.22,2.54.44,5.15.64,7.85,1.17-1.52,2.43-2.97,3.78-4.36,10.3-10.61,23.99-16.04,40.68-16.13,16.81,0,30.54,5.41,40.86,16.08,10.25,10.59,15.44,24.93,15.44,42.6,0,7.06-.89,13.49-2.66,19.11-1.85,5.88-4.52,10.93-7.93,15.01-3.44,4.1-7.73,7.49-12.77,10.08-4.72,2.42-9.92,4.19-15.46,5.24-5.24.99-11.1,1.5-17.43,1.5-8.02,0-15.28-.83-21.56-2.48-6.66-1.75-12.67-4.6-17.85-8.46-.97-.73-1.91-1.5-2.8-2.32-.12,3.25-1.45,6.25-3.77,8.5-2.12,2.06-4.83,3.34-7.82,3.7h-.13c-3.52.38-8.47.56-15.13.56-.44,0-.87,0-1.3-.01v2c.43.01.86.01,1.3.01,6.71,0,11.72-.19,15.31-.56h.1s.05-.01.05-.01h.04c3.43-.42,6.54-1.89,8.97-4.26,1.78-1.72,3.06-3.85,3.77-6.17.07.05.14.1.21.15,5.4,4.03,11.63,6.99,18.54,8.8,6.43,1.69,13.85,2.55,22.07,2.55,6.42,0,12.41-.52,17.8-1.54,5.7-1.08,11.09-2.91,16-5.42,5.27-2.71,9.78-6.27,13.39-10.58,3.58-4.29,6.38-9.57,8.31-15.69,1.82-5.8,2.75-12.43,2.75-19.71,0-18.22-5.39-33.02-16-44ZM375.05,110.72l-.26-.03c-3.06-.35-5.79-1.62-7.9-3.67-2.42-2.35-3.76-5.53-3.76-8.96.07-14.01.37-28.27.9-42.45-2.51-.31-4.88-1.47-6.81-3.4-3.35-2.63-5.9-4.29-7.79-5.34,2.51,25.26,4.26,41.87,5.19,49.39.43,3.57-.62,7.02-2.94,9.76-2.2,2.57-5.15,4.15-8.54,4.54-1.95.25-5.84.57-16.82.57-7.6,0-13.16-.18-16.98-.55h-.14c-3.43-.39-6.51-2.04-8.67-4.67-2.24-2.72-3.25-6.13-2.84-9.61,1.1-8.71,2.85-25.36,5.22-49.57-1.95,1.04-4.61,2.73-8.12,5.48-2.28,2.27-5.15,3.47-8.15,3.47-1.51,0-3.06-.31-4.58-.93-.86-.36-1.66-.81-2.39-1.33-.44.44-.89.87-1.36,1.3-1.52,1.38-3.15,2.65-4.9,3.79,2.84,1.93,5.45,4.21,7.82,6.82,7.06,7.78,11.14,18.42,12.13,31.63v.33c.14,3.38-1.01,6.62-3.23,9.11-2.18,2.44-5.1,3.92-8.44,4.3h-.18c-3.98.37-9.15.55-15.82.55-7.24,0-12.52-.18-16.15-.55h-.13c-3-.36-5.69-1.58-7.79-3.55-.96-.9-1.75-1.93-2.36-3.06-.47.84-1.05,1.64-1.73,2.38-2.21,2.41-5.16,3.87-8.5,4.23l-.18.02c-4.09.36-9.34.53-16.03.53-6.31,0-11-.18-14.32-.56h-.11c-2.89-.37-5.51-1.59-7.58-3.54-2.4-2.26-3.77-5.3-3.86-8.6-2.72,2.52-5.84,4.68-9.31,6.46-4.72,2.42-9.92,4.19-15.45,5.24-5.25.99-11.11,1.5-17.43,1.5-8.03,0-15.29-.83-21.57-2.48-6.66-1.75-12.67-4.6-17.85-8.46-5.58-4.17-9.86-9.83-12.73-16.84-1.93-4.73-3.18-10.1-3.72-16.03-3.31,2.56-7.02,4.73-11.08,6.52-4.82,2.12-9.99,3.61-15.34,4.44-2.88.44-5.8.71-8.74.81.25,1.62.63,3.62,1.18,6.06,1.59,7.03,1.99,9.34,2.14,10.51.5,3.55-.45,7.02-2.71,9.77-2.13,2.59-5.13,4.24-8.45,4.64-3.01.38-8.22.56-16.32.56-7.16,0-12.4-.18-16.03-.55h-.17c-3.1-.39-5.83-1.71-7.9-3.85-2.23-2.31-3.47-5.39-3.47-8.66.09-15.08.44-30.65,1.04-46.32.61-15.74,1.39-28.31,2.32-37.38.28-2.88,1.46-5.51,3.42-7.61,2.16-2.32,5.12-3.69,8.32-3.86,10.15-.68,23.81-1.02,40.59-1.02,13.65,0,24.65,2.68,32.72,7.97,4.72,3.1,8.3,7.02,10.64,11.63.93-1.15,1.93-2.27,2.97-3.34,10.31-10.61,23.99-16.04,40.68-16.13,13.25,0,24.58,3.36,33.85,10.01v-2.44C169.16,3.34,157.82.13,144.7.13c-17.25.09-31.42,5.72-42.12,16.73-.41.42-.81.85-1.2,1.28-2.44-3.83-5.75-7.14-9.87-9.85C83.11,2.79,71.73,0,57.69,0c-16.88,0-30.58.34-40.73,1.02-3.69.2-7.13,1.79-9.65,4.49-2.25,2.42-3.62,5.46-3.94,8.78-.94,9.1-1.72,21.72-2.33,37.5-.6,15.7-.95,31.3-1.04,46.38,0,3.8,1.43,7.37,4.03,10.07,2.38,2.46,5.53,3.99,9.1,4.43h.06s.06.01.06.01h.13c3.69.38,8.99.57,16.19.57,8.19,0,13.46-.19,16.57-.58,3.82-.46,7.28-2.36,9.74-5.35,2.61-3.18,3.73-7.2,3.15-11.32-.15-1.15-.53-3.42-2.17-10.68-.3-1.33-.56-2.58-.78-3.73,2.25-.14,4.49-.38,6.69-.72,5.55-.86,10.88-2.4,15.84-4.58,3.11-1.37,6.02-2.96,8.68-4.75.68,4.78,1.84,9.2,3.47,13.18,3,7.35,7.51,13.3,13.38,17.69,5.4,4.02,11.63,6.98,18.54,8.79,6.43,1.69,13.86,2.55,22.08,2.55,6.41,0,12.4-.52,17.8-1.54,5.7-1.08,11.08-2.91,15.99-5.42,2.51-1.29,4.86-2.78,7-4.44.71,2.36,2.04,4.51,3.89,6.25,2.38,2.24,5.39,3.65,8.7,4.06h.07s.11.02.11.02c3.32.38,8.08.57,14.5.57,6.79,0,12.09-.18,16.2-.54l.23-.03c3.84-.41,7.21-2.09,9.75-4.86.08-.09.16-.18.24-.27.32.37.65.72,1.01,1.05,2.41,2.27,5.5,3.67,8.93,4.07h.04s.03.01.03.01h.13c3.65.38,9,.57,16.31.57,6.67,0,11.89-.18,15.97-.55h.14s.06-.01.06-.01h.05c3.85-.44,7.2-2.16,9.71-4.96,2.57-2.88,3.9-6.62,3.75-10.52v-.31s0-.05,0-.05v-.04c-1.03-13.67-5.29-24.71-12.65-32.83-1.82-2-3.78-3.82-5.87-5.45.97-.73,1.91-1.51,2.81-2.33.1-.09.19-.18.28-.26.44.24.89.46,1.36.65,1.75.73,3.55,1.09,5.35,1.09,3.51,0,6.87-1.41,9.47-3.97,1.57-1.23,3.05-2.3,4.42-3.21-2.18,22.14-3.8,37.45-4.83,45.55-.47,4.03.69,7.98,3.28,11.13,2.49,3.03,6.04,4.94,10,5.37h.04s.04.01.04.01h.11c3.89.38,9.49.57,17.15.57,11.2,0,15.11-.34,17.07-.59,3.86-.44,7.26-2.25,9.81-5.22,2.69-3.18,3.9-7.2,3.4-11.3-.88-7.17-2.53-22.79-4.78-45.31,1.27.87,2.63,1.87,4.07,3,1.75,1.72,3.83,2.92,6.08,3.53-.49,13.56-.77,27.28-.84,40.81,0,3.97,1.55,7.67,4.37,10.4,2.43,2.36,5.56,3.82,9.06,4.22l.26.03h.03s.03.01.03.01c4.18.36,9.21.54,14.94.54.74,0,1.46,0,2.15-.01v-2c-.69.01-1.41.01-2.15.01-5.69,0-10.66-.18-14.77-.53Z"/>
      <path class="cls-1" d="M613.76,63.65c-.68.55-1.37,1-2.06,1.35-1.81.91-5.32,2-11.76,2-7.12,0-7.75-1.56-7.8-3.35h21.62Z"/>
    </g>
  </g>
</svg>